<?xml version="1.0" encoding="utf-8"?>
<!-- Generator: Adobe Illustrator 22.1.0, SVG Export Plug-In . SVG Version: 6.00 Build 0)  -->
<svg version="1.1" id="Isolation_Mode" xmlns="http://www.w3.org/2000/svg" xmlns:xlink="http://www.w3.org/1999/xlink" x="0px"
	 y="0px" viewBox="0 0 568.9 164.4" style="enable-background:new 0 0 568.9 164.4;" xml:space="preserve">
<style type="text/css">
	.st0{fill-rule:evenodd;clip-rule:evenodd;fill:#fff;}
	.st1{
	fill:#fff;
	}
</style>
<g>
	<g>
		<path class="st0" d="M74.8,102.6c0.2,0,0.4,0,0.6,0c0.8,0,1.6,0,2.5-0.1l-0.7-10.2c-0.7,0.1-1.5,0.1-2.2,0.1
			c-13.9-0.3-25-11.7-24.7-25.6c0.3-13.9,11.8-25,25.6-24.7C86,42.3,95,48.4,98.7,57.8l9.5-3.8c-5.3-13.2-18-21.9-32.2-22.1
			c-0.2,0-0.4,0-0.6,0c-6.9,0-13.4,2-18.9,5.5c-0.1-6-3.2-11.8-8.7-15.1c-8.5-5.1-19.6-2.4-24.7,6.2c-5.1,8.5-2.4,19.6,6.2,24.7
			c4,2.4,8.6,3.1,12.9,2.2c-1.3,3.5-2,7.3-2.1,11.3C39.7,86.1,55.3,102.3,74.8,102.6z"/>
		<path class="st0" d="M128.7,114.4c-4.3-2.6-9.2-3.2-13.7-2c0.2-1.5,0.4-3.1,0.4-4.7c0.3-19.5-15.2-35.7-34.7-36
			c-1.6,0-3.3,0.1-4.9,0.3L77,82c1.2-0.1,2.3-0.2,3.5-0.2c13.9,0.3,25,11.7,24.7,25.6c-0.2,13.9-11.8,25.1-25.6,24.7
			c-10.1-0.2-19.1-6.4-22.9-15.8l-9.5,3.8c5.3,13.2,18,21.9,32.2,22.1c0.2,0,0.4,0,0.6,0c8.3,0,16-2.9,22.1-7.8
			c1.2,4.3,3.9,8.2,8.1,10.6c8.5,5.1,19.6,2.4,24.7-6.1C140,130.6,137.3,119.5,128.7,114.4z"/>
	</g>
	<g>
		<g>
			<path class="st1" d="M187.5,98.4c-10.4,0-16.8-8.5-16.8-22.2c0-13.7,6.4-22.2,16.8-22.2c7.7,0,13.5,4.7,15,12h10.7
				c-1.3-12.7-11.9-21.7-25.7-21.7c-17.2,0-27.9,12.2-27.9,31.9c0,19.7,10.7,31.9,27.9,31.9c14,0,24.3-8.4,25.7-20.8h-10.7
				C201.1,94.1,195.2,98.4,187.5,98.4z M242,59.5c-13.7,0-22.2,9.1-22.2,24c0,15,8.3,24,22.2,24c13.8,0,22.2-9,22.2-24
				C264.1,68.6,255.7,59.5,242,59.5z M242,98.7c-7.3,0-11.5-5.6-11.5-15.2c0-9.6,4.2-15.2,11.5-15.2c7.2,0,11.4,5.6,11.4,15.2
				C253.4,93.2,249.2,98.7,242,98.7z M297,59.5c-6.9,0-11.5,3.2-13.7,8.3h-0.7v-7.4h-10.1v46.1h10.4V79.7c0-6.8,3.9-11.1,10.2-11.1
				c6.4,0,9.3,3.5,9.3,10.6v27.3h10.4V76.7C312.8,65.7,307.2,59.5,297,59.5z M336.8,49.2h-10.4v11.6h-7.3v8.3h7.3v25.2
				c0,8.9,4.2,12.5,14.8,12.5c2,0,4-0.2,5.5-0.5v-8.2c-1.3,0.1-2.1,0.2-3.5,0.2c-4.4,0-6.3-2-6.3-6.6V69.1h9.9v-8.3h-9.9V49.2z
				 M383.4,71.7l-7-1.6c-7.5-1.7-10.6-4.1-10.6-8.2c0-5.2,4.6-8.6,11.6-8.6c6.7,0,11.4,3.4,12.1,8.7h10.4
				c-0.5-10.4-9.7-17.8-22.5-17.8c-13.6,0-22.6,7.3-22.6,18.4c0,9.1,5.2,14.5,16.2,17l7.9,1.8c7.8,1.8,11.1,4.4,11.1,8.8
				c0,5.1-5.2,8.8-12.3,8.8c-7.7,0-13.1-3.5-13.8-8.9h-10.6c0.5,11,9.8,18,23.7,18c14.7,0,23.9-7.4,23.9-19.2
				C400.9,79.6,395.7,74.5,383.4,71.7z M428.9,96.4h-0.7l-10.8-36H406l16.5,46.3l-0.5,2c-1.3,4.3-3.8,5.9-8.3,5.9
				c-0.7,0-2.3,0-2.9-0.2v8.6c0.7,0.1,3.5,0.2,4.1,0.2c10.3,0,15.3-3.8,19.2-15.3l16.6-47.6h-11L428.9,96.4z M482,59.5
				c-6.9,0-11.5,3.2-13.7,8.3h-0.7v-7.4h-10.1v46.1H468V79.7c0-6.8,3.9-11.1,10.2-11.1c6.4,0,9.3,3.5,9.3,10.6v27.3h10.4V76.7
				C497.9,65.7,492.3,59.5,482,59.5z M527.8,98.7c-7.1,0-11.4-5.6-11.4-15.3c0-9.6,4.3-15.1,11.4-15.1c5.7,0,9.2,3.2,10.2,7.7h9.9
				c-1.1-9.7-8.3-16.4-20.1-16.4c-13.9,0-22,8.9-22,23.8c0,15.2,8.2,24.1,22,24.1c11.7,0,18.9-6.5,20.1-16.1H538
				C536.9,96.2,533.3,98.7,527.8,98.7z"/>
		</g>
	</g>
</g>
</svg>
